<svg width="152" height="65" viewBox="0 0 152 65" fill="none" xmlns="http://www.w3.org/2000/svg">
<path d="M0 27.7166L0.730085 27.4358C1.17937 27.2954 1.5725 27.0146 1.82522 26.6215C2.04986 26.2284 2.16218 25.7791 2.1341 25.3298V4.41006C2.16218 3.96078 2.04986 3.48342 1.82522 3.09029C1.54442 2.72525 1.17937 2.44445 0.730085 2.33213L0 2.05133V1.6582H11.5129C14.7702 1.6582 17.129 2.24789 18.5611 3.45534C19.9651 4.52238 20.7513 6.20719 20.7233 7.97625C20.6952 9.38026 20.1336 10.7 19.1508 11.6828C18.0837 12.806 16.2866 13.5642 13.7032 14.0416C16.6516 14.3504 18.7857 15.1367 20.1616 16.3441C21.4814 17.4393 22.2115 19.0679 22.2115 20.7808C22.2115 21.6794 22.015 22.5499 21.6499 23.3642C21.2287 24.2908 20.5548 25.1332 19.7404 25.751C18.6453 26.5653 17.3817 27.155 16.0619 27.492C14.1244 27.9693 12.1588 28.194 10.1651 28.1659H0V27.7166ZM9.77194 13.9573C11.5691 13.9573 12.8608 13.5361 13.647 12.7218C14.4333 11.8794 14.8264 10.4473 14.8264 8.39745C14.8264 6.26335 14.4613 4.74703 13.7313 3.82038C13.0012 2.92181 11.8218 2.44445 10.1931 2.44445H8.03097V13.9573H9.77194ZM10.0527 27.3235C12.0464 27.3235 13.5628 26.79 14.5175 25.7229C15.4722 24.6559 15.9777 22.9711 15.9777 20.6966C15.9777 18.5625 15.5003 17.0462 14.5737 16.1195C13.647 15.1929 12.1026 14.7436 9.9685 14.7436H8.03097V27.3235H10.0527Z" fill="white"/>
<path d="M23.8984 28.1107V27.7176L24.4881 27.5491C24.9374 27.4368 25.3305 27.184 25.5833 26.819C25.8079 26.454 25.8921 26.0047 25.8921 25.5835V13.0316C25.9202 12.5823 25.8079 12.1331 25.5833 11.7399C25.3025 11.403 24.9093 11.2064 24.4881 11.1503L23.8984 10.9818V10.5886L30.8062 8.25799L31.1993 8.65111L31.5644 12.105V12.4139C31.9575 11.6557 32.4348 10.9537 33.0245 10.3359C33.6142 9.71816 34.2881 9.21272 35.0182 8.79152C35.6922 8.39839 36.4222 8.20183 37.2085 8.20183C38.079 8.14567 38.9214 8.45455 39.5392 9.04424C40.0727 9.60584 40.3535 10.3921 40.3535 11.1783C40.4096 11.9646 40.1288 12.7227 39.5672 13.2843C39.0618 13.7617 38.3879 14.0425 37.7139 14.0144C36.5907 14.0144 35.6079 13.4528 34.7374 12.3296L34.6532 12.2454C34.4566 11.9084 34.1197 11.6838 33.7265 11.6276C33.3334 11.5995 32.9684 11.7961 32.7718 12.1331C32.491 12.3858 32.2664 12.6666 32.0979 13.0035C31.9013 13.3686 31.7328 13.7617 31.5924 14.1548V25.3588C31.4801 26.2855 32.0979 27.156 32.9965 27.3525L34.2881 27.7176V28.1107H23.8984Z" fill="white"/>
<path d="M41.6719 28.11V27.7169L42.2335 27.5484C42.6828 27.4642 43.0759 27.1834 43.3286 26.8183C43.5533 26.4252 43.6375 25.9759 43.6375 25.5267V13.0029C43.6656 12.5536 43.5533 12.1324 43.3286 11.7393C43.0478 11.4023 42.6547 11.2058 42.2335 11.1496L41.6719 11.0373V10.6442L49.0008 8.28542L49.394 8.67854L49.2816 14.3788V25.6109C49.2536 26.0602 49.3659 26.5095 49.5905 26.9026C49.8432 27.2676 50.2364 27.5204 50.6576 27.6327L51.0507 27.745V28.1381L41.6719 28.11ZM46.4174 6.12324C45.575 6.15132 44.7326 5.84244 44.1149 5.25276C43.4971 4.69115 43.1601 3.90491 43.1601 3.0625C43.132 2.2201 43.469 1.40577 44.1149 0.844167C44.7607 0.282563 45.575 -0.026319 46.4174 0.00176115C47.2598 -0.026319 48.0742 0.282563 48.6919 0.844167C49.3097 1.40577 49.6467 2.2201 49.6186 3.0625C49.6467 3.87683 49.3097 4.69115 48.6919 5.25276C48.0742 5.84244 47.2598 6.15132 46.4174 6.12324Z" fill="white"/>
<path d="M61.3542 28.729C59.866 28.757 58.4058 28.392 57.1141 27.6619C55.7943 26.9038 54.7554 25.7525 54.1376 24.3765C53.3513 22.5794 52.9582 20.6138 53.0425 18.6482C52.9582 16.6264 53.4075 14.6327 54.278 12.8075C55.0081 11.3754 56.1594 10.168 57.5634 9.35364C58.9112 8.59547 60.4557 8.20235 62.0282 8.20235C62.9267 8.20235 63.8253 8.28659 64.7239 8.48315C65.5101 8.65163 66.2964 8.93243 66.9984 9.32556V4.13072C67.0264 3.70952 66.9422 3.26023 66.7456 2.89519C66.4648 2.55823 66.0717 2.36167 65.6505 2.33359L64.8923 2.16511V1.77198L72.1932 0.00292969L72.6425 0.367973L72.474 5.98401V25.6121C72.446 26.0613 72.5583 26.5106 72.7548 26.9038C72.9795 27.2688 73.3726 27.5215 73.7938 27.6058L74.1588 27.7181V28.1112L67.3072 28.5605L66.9422 27.1284C66.184 27.6338 65.3416 28.027 64.4711 28.2797C63.4041 28.5886 62.3932 28.729 61.3542 28.729ZM63.6568 27.2407C64.78 27.2407 65.8471 26.9038 66.7456 26.2298V10.3084C65.8471 9.6906 64.78 9.35364 63.6849 9.35364C62.3932 9.35364 61.2981 10.0837 60.3995 11.572C59.5009 13.0602 59.0236 15.3909 59.0236 18.5639C59.0236 21.737 59.4448 23.9834 60.3153 25.2751C61.0173 26.4826 62.2809 27.2126 63.6568 27.2407Z" fill="white"/>
<path d="M84.2435 21.1742C82.6429 21.2304 81.0143 20.8934 79.5541 20.2476V21.6235C79.4979 22.3817 80.0595 23.0275 80.7896 23.1118L88.3432 24.5158C89.4945 24.7404 90.6458 25.0493 91.7409 25.4705C92.6676 25.8075 93.51 26.3691 94.1839 27.1272C94.8298 27.9416 95.1667 28.9805 95.1106 30.0476C95.1106 31.3673 94.6613 32.659 93.8189 33.6699C92.808 34.8774 91.5163 35.804 90.0281 36.3656C88.0344 37.0957 85.9283 37.4608 83.7942 37.3765C82.0813 37.4327 80.3403 37.208 78.7117 36.7026C77.6727 36.3937 76.7461 35.804 76.0441 34.9897C75.5386 34.3719 75.2578 33.5857 75.2578 32.7714C75.2859 31.7324 75.6228 30.7215 76.2406 29.851C76.8584 28.8963 77.7008 28.11 78.6555 27.4923C77.9535 27.2676 77.3357 26.8184 76.8584 26.2568C76.4933 25.7794 76.2968 25.2178 76.2968 24.6C76.2968 24.0665 76.4372 23.5611 76.718 23.0837C77.0269 22.5782 77.3638 22.1009 77.7289 21.6516L79.0486 19.9668C77.083 18.8436 76.1283 17.0745 76.1283 14.6596C76.0721 12.8625 76.8303 11.1496 78.2062 9.97024C79.5822 8.76279 81.604 8.17311 84.2716 8.17311C85.479 8.14503 86.6865 8.31351 87.8659 8.65047C88.7925 8.93127 89.663 9.38056 90.4212 10.0264C91.2636 9.886 92.0779 9.68944 92.8361 9.35248C93.5943 9.04359 94.2962 8.62239 94.914 8.08887L95.4756 8.48199V10.5318H90.9547C91.9375 11.6831 92.471 13.1433 92.3868 14.6596C92.4429 16.4287 91.6848 18.1416 90.3089 19.2929C88.961 20.5565 86.9392 21.1742 84.2435 21.1742ZM78.2343 31.4797C78.2343 33.0522 78.7117 34.2596 79.6945 35.0459C80.6773 35.8602 82.2217 36.2533 84.3278 36.2533C86.5461 36.2533 88.2309 35.8883 89.3541 35.1582C90.4212 34.5123 91.067 33.361 91.0389 32.0974C91.067 31.3954 90.7581 30.7215 90.2246 30.3003C89.3822 29.7387 88.4275 29.3737 87.4447 29.2613L80.1719 27.8854L79.526 27.7169C79.1329 28.2785 78.824 28.8963 78.5994 29.5421C78.3747 30.188 78.2343 30.8338 78.2343 31.4797ZM84.2154 20.3599C85.1982 20.4161 86.0968 19.9106 86.5742 19.0401C87.0796 18.1697 87.3043 16.6814 87.3043 14.6316C87.3043 12.5817 87.0515 11.1215 86.5742 10.2791C85.816 9.04359 84.2154 8.65047 82.9799 9.38056C82.6148 9.6052 82.2779 9.91408 82.0813 10.3072C81.5759 11.1777 81.3232 12.6379 81.3232 14.6877C81.3232 16.7376 81.5478 18.1977 82.0252 19.0682C82.4183 19.9106 83.2888 20.4161 84.2154 20.3599Z" fill="white"/>
<path d="M106.288 8.20094C107.832 8.14478 109.376 8.50982 110.752 9.26798C111.96 9.94191 112.943 10.9528 113.589 12.1602C114.262 13.4519 114.599 14.8559 114.571 16.3161C114.571 16.5969 114.543 16.9058 114.543 17.2147C114.515 17.4955 114.459 17.7763 114.375 18.029H102.413C102.441 20.9213 102.946 22.9992 103.957 24.2628C104.968 25.5264 106.456 26.1723 108.422 26.1723C109.545 26.2284 110.64 26.0038 111.679 25.5264C112.578 25.0491 113.364 24.4032 114.01 23.645L114.403 24.0101C113.617 25.4422 112.493 26.6215 111.089 27.4639C109.573 28.3344 107.86 28.7556 106.147 28.6995C104.378 28.7276 102.637 28.3064 101.093 27.4639C99.6326 26.6496 98.4252 25.4422 97.6389 23.9539C96.7684 22.2691 96.3472 20.3877 96.4034 18.5064C96.3472 16.5408 96.8527 14.6032 97.8355 12.9184C98.7341 11.4302 100.026 10.2227 101.542 9.40838C102.974 8.62214 104.631 8.20094 106.288 8.20094ZM106.147 9.01526C105.417 8.98718 104.715 9.2399 104.154 9.71727C103.48 10.3912 103.03 11.2617 102.862 12.2164C102.497 13.8731 102.328 15.5579 102.356 17.2428H109.208C109.461 14.3224 109.376 12.2164 108.899 10.9528C108.562 9.74535 107.411 8.93102 106.147 9.01526Z" fill="white"/>
<path d="M0 63.8095V63.4164L0.814327 63.1356C1.26361 63.0514 1.62866 62.7986 1.88138 62.4055C2.07794 62.0124 2.16218 61.5631 2.1341 61.1138V40.0818C2.16218 39.6325 2.04986 39.1832 1.8533 38.7901C1.60057 38.425 1.20745 38.1442 0.758167 38.0319L0 37.723V37.3299H9.74386C13.7313 37.3299 16.6235 38.06 18.3926 39.5202C20.1336 40.9242 21.1164 43.0583 21.0602 45.2766C21.0602 46.7368 20.6952 48.197 19.9651 49.4606C19.1227 50.8365 17.831 51.9035 16.3427 52.4932C14.6579 53.2514 12.3834 53.6164 9.51922 53.6164H8.14329V61.0015C8.08713 61.9843 8.76105 62.8548 9.71579 63.0514L10.9232 63.4164V63.8095H0ZM8.14329 52.8302H9.65962C10.7548 52.8863 11.878 52.6617 12.8608 52.1843C13.7313 51.707 14.4052 50.8926 14.7141 49.9379C15.1634 48.5058 15.3599 46.9895 15.3038 45.4732C15.3599 43.9568 15.1353 42.4124 14.6298 40.9803C14.2929 40.0256 13.5909 39.2113 12.6923 38.762C11.6814 38.3127 10.5863 38.1162 9.49114 38.1442H8.1152L8.14329 52.8302Z" fill="white"/>
<path d="M28.0517 64.4273C26.6196 64.4835 25.2437 64.0061 24.1486 63.1076C23.0534 62.1528 22.4638 60.7488 22.5761 59.2887C22.5761 58.025 23.2219 56.8738 24.5136 55.8067C25.8053 54.7397 27.8271 53.9534 30.579 53.4199C31.0002 53.3356 31.4775 53.2514 32.0111 53.1672C32.5446 53.0829 33.1062 52.9706 33.6959 52.8583V49.7133C33.6959 47.8881 33.4712 46.6245 33.022 45.8944C32.6007 45.1643 31.7864 44.7431 30.944 44.7993C30.3824 44.7712 29.8208 44.9958 29.4277 45.417C28.9784 46.0348 28.7257 46.793 28.6976 47.5511L28.6133 48.0004C28.6414 48.9271 28.3325 49.8256 27.7709 50.5276C27.2936 51.0611 26.5916 51.342 25.8896 51.342C25.2437 51.37 24.6259 51.1454 24.1767 50.6961C23.6993 50.2468 23.4746 49.6291 23.5027 48.9832C23.4746 47.9442 23.8959 46.9334 24.654 46.2033C25.4964 45.389 26.5635 44.8274 27.6867 44.5185C29.0065 44.1253 30.3824 43.9569 31.7864 43.9569C34.1732 43.9569 35.9985 44.5465 37.2902 45.6978C38.5818 46.8491 39.2277 48.7586 39.2277 51.37V60.2434C39.2277 61.4508 39.7893 62.0405 40.9125 62.0405H41.783L42.148 62.3494C41.6988 62.9391 41.1372 63.4445 40.4913 63.8376C39.7051 64.2308 38.8346 64.3992 37.936 64.3712C36.9532 64.4273 35.9423 64.1465 35.1561 63.5568C34.4821 62.9952 34.0048 62.2371 33.8082 61.3666C33.05 62.1809 32.2357 62.911 31.3371 63.5568C30.3543 64.1746 29.203 64.4835 28.0517 64.4273ZM30.4947 61.9843C31.0283 61.9843 31.5337 61.8439 32.0111 61.5912C32.6007 61.2543 33.1624 60.8611 33.6678 60.4119V53.6726L32.8535 53.8411C32.5727 53.8973 32.2638 53.9534 31.9268 54.0096C30.8036 54.2623 29.7927 54.8239 28.9784 55.6382C28.2202 56.4806 27.8271 57.5758 27.8833 58.699C27.8271 59.5975 28.0798 60.468 28.6414 61.17C29.0907 61.6755 29.7646 61.9843 30.4947 61.9843Z" fill="white"/>
<path d="M42.9375 63.8088V63.4156L43.5272 63.2472C43.9765 63.1348 44.3696 62.8821 44.6223 62.5171C44.847 62.152 44.9312 61.7028 44.9312 61.2815V48.7297C44.9593 48.2804 44.847 47.8311 44.6223 47.438C44.3415 47.101 43.9484 46.9045 43.5272 46.8483L42.9375 46.6798V46.2867L49.8453 43.9561L50.2384 44.3492L50.6034 47.8031V48.1119C50.9965 47.3538 51.4739 46.6518 52.0636 46.034C52.6533 45.4162 53.3272 44.9108 54.0573 44.4896C54.7312 44.0965 55.4894 43.8999 56.2476 43.8999C57.118 43.8437 57.9605 44.1526 58.5782 44.7423C59.1118 45.3039 59.3926 46.0902 59.3926 46.8764C59.4487 47.6627 59.1679 48.4208 58.6063 48.9824C58.1009 49.4598 57.4269 49.7406 56.753 49.7125C55.6298 49.7125 54.647 49.1509 53.7765 48.0277L53.6922 47.9435C53.4957 47.6065 53.1587 47.3818 52.7656 47.3257C52.3725 47.2976 52.0074 47.4942 51.8109 47.8311C51.5301 48.0839 51.3054 48.3647 51.165 48.7016C50.9685 49.0667 50.8 49.4598 50.6596 49.8529V61.0569C50.5473 61.9836 51.165 62.854 52.0636 63.0506L53.3553 63.4156V63.8088H42.9375Z" fill="white"/>
<path d="M68.5979 64.4268C66.885 64.4268 65.5652 64.0056 64.6105 63.1351C63.6558 62.2927 63.1784 60.9168 63.1784 59.0354V45.3042H60.3984V44.9111L61.3532 44.7426C62.1113 44.5741 62.8414 44.3214 63.4873 43.9283C64.1331 43.5352 64.7509 43.0578 65.2844 42.5243L68.5698 38.8739H68.9629L68.8506 44.4899H73.3434V45.3042H68.8225V59.7374C68.7664 60.4956 68.991 61.2538 69.4403 61.8715C69.8334 62.3489 70.4231 62.6016 71.0128 62.6016C71.5463 62.6016 72.0518 62.4612 72.501 62.1804C72.9784 61.8715 73.3996 61.4784 73.7927 61.0291L74.1859 61.4223C73.6523 62.3208 72.8942 63.079 71.9675 63.5844C70.9566 64.1741 69.7773 64.4549 68.5979 64.4268Z" fill="white"/>
<path d="M75.4531 63.8091V63.416L76.0147 63.2475C76.9133 63.0509 77.503 62.2085 77.4187 61.2819V48.73C77.4468 48.2807 77.3626 47.8314 77.1379 47.4383C76.8571 47.1014 76.4921 46.9048 76.0428 46.8486L75.4531 46.6802V46.287L82.3047 43.9564L82.6978 44.3495L83.0067 46.7644C83.9615 45.922 85.0285 45.2481 86.1798 44.7145C87.2749 44.2091 88.4543 43.9283 89.6618 43.9002C91.4308 43.9002 92.7787 44.3776 93.7334 45.3323C94.6881 46.287 95.1655 47.7753 95.1655 49.7409V61.3099C95.0813 62.2647 95.7552 63.1071 96.6818 63.2756L97.0469 63.3879V63.781H87.5838V63.3879L88.1173 63.2194C89.0159 62.9948 89.6056 62.1524 89.5214 61.2538V48.4492C89.5214 46.7363 88.6789 45.8939 86.966 45.8939C85.7867 45.8939 84.495 46.4836 83.119 47.663V61.3099C83.0348 62.2366 83.6245 63.079 84.5231 63.2756L84.8881 63.3879V63.781L75.4531 63.8091Z" fill="white"/>
<path d="M108.725 43.9273C110.27 43.8712 111.814 44.2362 113.19 44.9944C114.397 45.6683 115.38 46.6792 116.026 47.8866C116.7 49.1783 117.037 50.5823 117.009 52.0425C117.009 52.3233 116.981 52.6322 116.981 52.9411C116.953 53.2219 116.897 53.5027 116.812 53.7554H104.85C104.878 56.6477 105.384 58.7256 106.395 59.9892C107.405 61.2528 108.894 61.8987 110.859 61.8987C111.982 61.9548 113.078 61.7302 114.117 61.2528C115.015 60.7755 115.801 60.1296 116.447 59.3714L116.84 59.7365C116.054 61.1686 114.931 62.3479 113.527 63.1903C112.011 64.0608 110.298 64.482 108.585 64.4259C106.816 64.4539 105.075 64.0328 103.53 63.1903C102.07 62.376 100.863 61.1686 100.076 59.6803C99.2059 57.9955 98.7847 56.1141 98.8409 54.2328C98.7847 52.2672 99.2902 50.3296 100.273 48.6448C101.172 47.1566 102.463 45.9491 103.98 45.1348C105.44 44.3205 107.068 43.9273 108.725 43.9273ZM108.613 44.7136C107.883 44.6855 107.181 44.9382 106.619 45.4156C105.945 46.0895 105.496 46.96 105.327 47.9147C104.962 49.5715 104.794 51.2563 104.822 52.9411H111.674C111.926 50.0207 111.842 47.9147 111.365 46.6511C111 45.4437 109.848 44.6574 108.613 44.7136Z" fill="white"/>
<path d="M119 63.8088V63.4156L119.59 63.2472C120.039 63.1348 120.432 62.8821 120.685 62.5171C120.909 62.152 120.994 61.7028 120.994 61.2815V48.7297C121.022 48.2804 120.909 47.8311 120.685 47.438C120.404 47.101 120.011 46.9045 119.59 46.8483L119 46.6798V46.2867L125.908 43.9561L126.301 44.3492L126.666 47.8031V48.1119C127.059 47.3538 127.536 46.6518 128.126 46.034C128.716 45.4162 129.39 44.9108 130.12 44.4896C130.794 44.0965 131.552 43.8999 132.31 43.8999C133.181 43.8437 134.023 44.1526 134.641 44.7423C135.174 45.3039 135.455 46.0902 135.455 46.8764C135.511 47.6627 135.23 48.4208 134.669 48.9824C134.163 49.4598 133.489 49.7406 132.815 49.7125C131.692 49.7125 130.709 49.1509 129.839 48.0277L129.755 47.9435C129.558 47.6065 129.221 47.3818 128.828 47.3257C128.435 47.2976 128.07 47.4942 127.873 47.8311C127.593 48.0839 127.368 48.3647 127.199 48.7016C127.003 49.0667 126.834 49.4598 126.694 49.8529V61.0569C126.582 61.9836 127.199 62.854 128.098 63.0506L129.39 63.4156V63.8088H119Z" fill="white"/>
<path d="M143.264 64.4271C142.057 64.4552 140.877 64.2867 139.726 63.9778C138.715 63.697 137.76 63.3039 136.834 62.8265L136.862 58.0529H137.255L138.631 60.4678C139.108 61.3944 139.754 62.2088 140.568 62.8546C141.355 63.4162 142.309 63.6689 143.264 63.6408C144.359 63.697 145.454 63.3881 146.381 62.7704C147.139 62.2649 147.588 61.3944 147.56 60.4678C147.588 59.6535 147.28 58.8672 146.718 58.3056C146.156 57.744 145.117 57.2386 143.601 56.7893L141.916 56.2557C140.456 55.8626 139.108 55.1045 138.069 54.0093C137.143 52.9984 136.637 51.6506 136.665 50.2747C136.637 48.5337 137.423 46.877 138.743 45.7818C140.147 44.5463 142.113 43.9285 144.724 43.9285C145.707 43.9285 146.718 44.0409 147.673 44.2655C148.599 44.4902 149.498 44.8271 150.34 45.2764L150.088 49.6007H149.694L148.29 47.1016C147.925 46.3715 147.42 45.7538 146.774 45.2483C146.1 44.8271 145.314 44.6586 144.556 44.7148C143.657 44.7148 142.759 44.9675 142 45.473C141.242 45.9222 140.765 46.7646 140.793 47.6351C140.765 48.4775 141.13 49.2919 141.804 49.7973C142.731 50.4431 143.741 50.9486 144.837 51.2856L146.634 51.8191C148.571 52.4088 149.947 53.2231 150.761 54.234C151.604 55.301 152.025 56.5927 151.997 57.9406C152.053 59.7939 151.183 61.5348 149.694 62.63C148.206 63.8374 146.044 64.4271 143.264 64.4271Z" fill="white"/>
</svg>
