<svg width="202" height="69" viewBox="0 0 202 69" fill="none" xmlns="http://www.w3.org/2000/svg">
<path d="M36.2237 23.9394C42.2875 21.7279 45.4264 15.0221 43.2149 8.9583C41.5266 4.34505 37.1511 1.27748 32.2287 1.27748H29.7318C23.4778 1.27748 6.9271 1.27748 6.9271 1.27748C6.9271 1.27748 11.1123 2.87072 11.1123 7.60286C11.1123 7.69798 11.1123 7.81687 11.1123 7.91199V23.6065L11.1361 24.4864L11.1123 26.1272L11.1599 26.1034V26.1272L11.2074 26.0796C15.2024 24.3675 21.8132 24.1059 21.8132 24.1059V23.7017H21.837V2.44268H26.9972C27.0923 2.44268 27.1636 2.44268 27.2587 2.44268C30.469 2.44268 33.9408 6.79435 33.9408 12.1685C33.8933 14.3087 33.3226 16.3775 32.2762 18.2323C31.0635 20.753 28.8044 22.798 25.5942 24.2961C26.1173 24.3913 26.4502 24.4388 26.7831 24.5102C36.295 26.4363 43.0247 31.5727 45.5215 41.251C47.7806 50.0019 44.071 59.2759 36.3901 64.9117C30.5641 69.192 24.1674 69.3823 19.3401 65.9342C9.59043 59.157 11.7068 45.6978 11.7068 45.6978C11.8019 44.8179 11.9684 43.9381 12.1349 43.082C12.5867 40.7516 13.419 38.5163 14.6079 36.4713C14.9646 35.8768 15.3689 35.2823 15.8207 34.7354C17.2237 32.9044 18.9596 31.3587 20.9333 30.1935C22.1461 29.5039 23.454 28.9807 24.8332 28.6478C24.7856 28.6478 24.7381 28.6478 24.6905 28.6478C25.1661 28.5289 25.6655 28.4338 26.1649 28.3862C22.4077 28.1247 18.6505 28.5765 15.0598 29.7179L14.9646 29.7417C10.3989 31.2636 7.92585 33.4275 7.92585 33.4275C-2.10918 40.7992 -2.72745 53.8066 6.71309 61.8917C8.73436 63.6514 11.0172 65.0306 13.4903 66.0056C23.454 69.739 33.4415 69.525 43.096 64.9355C56.0322 58.7766 59.29 44.0332 50.3488 32.833C46.7105 28.3862 41.9784 25.6278 36.2237 23.9394Z" fill="#F6F1E5"/>
<path d="M23.1685 32.619V51.5714C23.1685 51.6665 23.1685 51.7616 23.1685 51.8805C23.1685 56.6126 18.793 58.0156 18.793 58.0156H37.5314C34.987 57.0407 33.3224 54.5914 33.3462 51.8805C33.3462 51.7854 33.3462 51.6665 33.3462 51.5714V32.619H23.1685Z" fill="#F6F1E5"/>
<path d="M62.8567 12.335C62.8329 8.7443 60.883 5.2487 57.0545 3.06097C54.6765 1.70554 51.6803 1.37262 48.9218 1.2775H41.1221C43.5476 1.61042 45.878 2.39514 48.0182 3.58412C50.8718 5.81941 52.5126 9.26745 52.465 12.882C52.465 14.6892 52.037 16.4727 51.2285 18.1135C49.9919 20.4201 47.828 22.3225 44.8317 23.7254H45.1409C45.022 23.773 44.9031 23.8206 44.7842 23.8681H52.4888C52.4888 23.8681 62.6903 23.3688 62.8567 12.8106C62.8567 12.7868 62.8567 12.7631 62.8567 12.7393C62.8567 12.6679 62.8567 12.5966 62.8567 12.5253C62.8567 12.4539 62.8567 12.4064 62.8567 12.335Z" fill="#F6F1E5"/>
<path d="M73.2791 23.472L73.8973 23.2342C74.2778 23.1153 74.6107 22.8775 74.8247 22.5446C75.015 22.2117 75.1101 21.8312 75.0863 21.4507V3.7349C75.1101 3.35443 75.015 2.95017 74.8247 2.61726C74.5869 2.30812 74.2778 2.07033 73.8973 1.97521L73.2791 1.73741V1.4045H83.0287C85.7872 1.4045 87.7847 1.90387 88.9974 2.92639C90.1864 3.83002 90.8522 5.2568 90.8285 6.75491C90.8047 7.94389 90.3291 9.06153 89.4968 9.89382C88.5932 10.845 87.0713 11.4871 84.8835 11.8913C87.3804 12.1529 89.1877 12.8187 90.3529 13.8412C91.4705 14.7686 92.0888 16.1479 92.0888 17.5984C92.0888 18.3594 91.9223 19.0965 91.6132 19.7861C91.2565 20.5709 90.6858 21.2842 89.9962 21.8074C89.0688 22.497 87.9987 22.9964 86.881 23.2817C85.2402 23.686 83.5757 23.8762 81.8873 23.8524H73.2791V23.472ZM81.5544 11.82C83.0763 11.82 84.1702 11.4633 84.836 10.7737C85.5018 10.0603 85.8347 8.84752 85.8347 7.1116C85.8347 5.30435 85.5256 4.02026 84.9073 3.23553C84.289 2.47458 83.2903 2.07033 81.9111 2.07033H80.08V11.82H81.5544ZM81.7922 23.1391C83.4805 23.1391 84.7646 22.6872 85.5731 21.7836C86.3817 20.88 86.8097 19.4532 86.8097 17.5271C86.8097 15.7198 86.4054 14.4357 85.6207 13.651C84.836 12.8663 83.5281 12.4858 81.7208 12.4858H80.08V23.1391H81.7922Z" fill="white"/>
<path d="M93.5157 23.8049V23.472L94.015 23.3293C94.3955 23.2342 94.7284 23.0201 94.9424 22.711C95.1327 22.4019 95.204 22.0214 95.204 21.6647V11.0352C95.2278 10.6548 95.1327 10.2743 94.9424 9.94136C94.7046 9.65601 94.3717 9.48955 94.015 9.44199L93.5157 9.29932V8.9664L99.3655 6.99269L99.6984 7.32561L100.008 10.2505V10.5121C100.34 9.87002 100.745 9.27553 101.244 8.75238C101.743 8.22923 102.314 7.8012 102.932 7.44451C103.503 7.11159 104.121 6.94513 104.787 6.94513C105.524 6.89757 106.238 7.15915 106.761 7.65852C107.213 8.13411 107.451 8.79994 107.451 9.46577C107.498 10.1316 107.26 10.7737 106.785 11.2492C106.357 11.6535 105.786 11.8913 105.215 11.8675C104.264 11.8675 103.432 11.3919 102.695 10.4407L102.623 10.3694C102.457 10.084 102.171 9.8938 101.839 9.84624C101.506 9.82246 101.196 9.98892 101.03 10.2743C100.792 10.4883 100.602 10.7261 100.459 11.0114C100.293 11.3206 100.15 11.6535 100.031 11.9864V21.4745C99.9362 22.2592 100.459 22.9964 101.22 23.1628L102.314 23.472V23.8049H93.5157Z" fill="white"/>
<path d="M108.568 23.8049V23.472L109.044 23.3293C109.424 23.2579 109.757 23.0201 109.971 22.711C110.161 22.3781 110.232 21.9976 110.232 21.6172V11.0114C110.256 10.631 110.161 10.2743 109.971 9.94137C109.733 9.65601 109.4 9.48955 109.044 9.44199L108.568 9.34688V9.01396L114.774 7.01647L115.107 7.34939L115.012 12.1766V21.6885C114.988 22.069 115.084 22.4494 115.274 22.7824C115.488 23.0915 115.821 23.3055 116.177 23.4006L116.51 23.4957V23.8287L108.568 23.8049ZM112.587 5.18545C111.873 5.20923 111.16 4.94765 110.637 4.44828C110.114 3.97269 109.828 3.30686 109.828 2.59347C109.804 1.88008 110.09 1.19047 110.637 0.71488C111.184 0.239287 111.873 -0.0222882 112.587 0.00149143C113.3 -0.0222882 113.99 0.239287 114.513 0.71488C115.036 1.19047 115.321 1.88008 115.298 2.59347C115.321 3.28308 115.036 3.97269 114.513 4.44828C113.99 4.94765 113.3 5.20923 112.587 5.18545Z" fill="white"/>
<path d="M125.238 24.328C123.977 24.3518 122.741 24.0427 121.647 23.4244C120.529 22.7823 119.65 21.8074 119.126 20.6422C118.461 19.1203 118.128 17.4557 118.199 15.7911C118.128 14.079 118.508 12.3907 119.245 10.845C119.864 9.63223 120.839 8.6097 122.028 7.9201C123.169 7.27805 124.477 6.94513 125.809 6.94513C126.569 6.94513 127.33 7.01647 128.091 7.18293C128.757 7.32561 129.423 7.5634 130.018 7.89632V3.49709C130.041 3.1404 129.97 2.75992 129.803 2.45079C129.566 2.16543 129.233 1.99898 128.876 1.9752L128.234 1.83252V1.4996L134.417 0.00148773L134.797 0.310623L134.655 5.06654V21.6885C134.631 22.069 134.726 22.4494 134.892 22.7823C135.083 23.0915 135.415 23.3055 135.772 23.3768L136.081 23.472V23.8049L130.279 24.1853L129.97 22.9726C129.328 23.4006 128.615 23.7335 127.877 23.9475C126.974 24.2091 126.118 24.328 125.238 24.328ZM127.188 23.0677C128.139 23.0677 129.043 22.7824 129.803 22.2116V8.7286C129.043 8.20545 128.139 7.9201 127.212 7.9201C126.118 7.9201 125.19 8.53837 124.429 9.79869C123.668 11.059 123.264 13.0327 123.264 15.7198C123.264 18.4069 123.621 20.3093 124.358 21.4031C124.952 22.4257 126.023 23.0439 127.188 23.0677Z" fill="white"/>
<path d="M144.618 17.9313C143.263 17.9789 141.883 17.6935 140.647 17.1466V18.3118C140.599 18.9539 141.075 19.5008 141.693 19.5721L148.09 20.7611C149.065 20.9513 150.04 21.2129 150.967 21.5696C151.752 21.855 152.465 22.3306 153.036 22.9726C153.583 23.6622 153.868 24.5421 153.821 25.4457C153.821 26.5633 153.44 27.6572 152.727 28.5133C151.871 29.5358 150.777 30.3205 149.517 30.7961C147.828 31.4144 146.045 31.7235 144.238 31.6522C142.787 31.6997 141.313 31.5095 139.933 31.0815C139.054 30.8199 138.269 30.3205 137.674 29.6309C137.246 29.1077 137.009 28.4419 137.009 27.7523C137.032 26.8725 137.318 26.0164 137.841 25.2792C138.364 24.4707 139.077 23.8049 139.886 23.2817C139.291 23.0915 138.768 22.711 138.364 22.2354C138.055 21.8312 137.888 21.3556 137.888 20.8324C137.888 20.3806 138.007 19.9526 138.245 19.5483C138.507 19.1203 138.792 18.7161 139.101 18.3356L140.219 16.9088C138.554 15.9576 137.746 14.4595 137.746 12.4145C137.698 10.8926 138.34 9.44201 139.505 8.44327C140.671 7.42075 142.383 6.92138 144.642 6.92138C145.664 6.8976 146.687 7.04028 147.686 7.32563C148.47 7.56343 149.208 7.9439 149.85 8.49083C150.563 8.37193 151.253 8.20548 151.895 7.92012C152.537 7.65855 153.131 7.30185 153.654 6.85004L154.13 7.18295V8.91886H150.301C151.134 9.89383 151.585 11.1304 151.514 12.4145C151.562 13.9126 150.92 15.3631 149.754 16.3381C148.613 17.4082 146.901 17.9313 144.618 17.9313ZM139.529 26.6585C139.529 27.9901 139.933 29.0126 140.766 29.6785C141.598 30.3681 142.906 30.701 144.689 30.701C146.568 30.701 147.995 30.3918 148.946 29.7736C149.85 29.2266 150.397 28.2517 150.373 27.1816C150.397 26.5871 150.135 26.0164 149.683 25.6597C148.97 25.1841 148.161 24.875 147.329 24.7799L141.17 23.6147L140.623 23.472C140.29 23.9476 140.029 24.4707 139.838 25.0177C139.648 25.5646 139.529 26.1115 139.529 26.6585ZM144.594 17.2417C145.427 17.2893 146.188 16.8613 146.592 16.1241C147.02 15.3869 147.21 14.1266 147.21 12.3907C147.21 10.6548 146.996 9.41824 146.592 8.70485C145.95 7.65855 144.594 7.32563 143.548 7.9439C143.239 8.13414 142.953 8.39571 142.787 8.72863C142.359 9.4658 142.145 10.7023 142.145 12.4382C142.145 14.1742 142.335 15.4107 142.739 16.1479C143.072 16.8613 143.81 17.2893 144.594 17.2417Z" fill="white"/>
<path d="M163.285 6.94512C164.593 6.89756 165.901 7.20669 167.066 7.84874C168.089 8.41945 168.921 9.27552 169.468 10.298C170.039 11.3919 170.324 12.5809 170.3 13.8174C170.3 14.0552 170.277 14.3168 170.277 14.5784C170.253 14.8162 170.205 15.054 170.134 15.268H160.004C160.028 17.7173 160.456 19.477 161.312 20.5471C162.168 21.6171 163.428 22.1641 165.093 22.1641C166.044 22.2116 166.971 22.0214 167.851 21.6171C168.612 21.2129 169.278 20.666 169.825 20.0239L170.158 20.333C169.492 21.5458 168.541 22.5445 167.352 23.2579C166.068 23.9951 164.617 24.3518 163.167 24.3042C161.668 24.328 160.194 23.9713 158.886 23.2579C157.65 22.5683 156.627 21.5458 155.961 20.2855C155.224 18.8587 154.867 17.2655 154.915 15.6722C154.867 14.0077 155.295 12.3669 156.128 10.9401C156.889 9.67977 157.983 8.65725 159.267 7.96764C160.479 7.30181 161.882 6.94512 163.285 6.94512ZM163.167 7.63473C162.548 7.61095 161.954 7.82497 161.478 8.22922C160.908 8.79993 160.527 9.5371 160.384 10.3456C160.075 11.7486 159.933 13.1754 159.956 14.6022H165.759C165.973 12.1291 165.901 10.3456 165.497 9.27552C165.212 8.253 164.237 7.56339 163.167 7.63473Z" fill="white"/>
<path d="M73.2791 54.0368V53.7039L73.9687 53.4661C74.3491 53.3948 74.6583 53.1808 74.8723 52.8479C75.0387 52.5149 75.1101 52.1345 75.0863 51.754V33.9431C75.1101 33.5626 75.015 33.1821 74.8485 32.8492C74.6345 32.5401 74.3016 32.3023 73.9211 32.2072L73.2791 31.9456V31.6127H81.5306C84.9073 31.6127 87.3566 32.231 88.8548 33.4675C90.3291 34.6565 91.1614 36.4637 91.1138 38.3423C91.1138 39.5788 90.8047 40.8154 90.1864 41.8855C89.473 43.0507 88.3792 43.9543 87.1188 44.4537C85.692 45.0957 83.7659 45.4049 81.3404 45.4049H80.1752V51.6589C80.1276 52.4912 80.6983 53.2283 81.5068 53.3948L82.5294 53.7039V54.0368H73.2791ZM80.1752 44.739H81.4593C82.3867 44.7866 83.3379 44.5963 84.1701 44.1921C84.9073 43.7878 85.478 43.0982 85.7396 42.2897C86.1201 41.077 86.2865 39.7929 86.239 38.5088C86.2865 37.2247 86.0963 35.9168 85.6683 34.704C85.3829 33.8955 84.7884 33.2059 84.0275 32.8254C83.1714 32.445 82.244 32.2785 81.3166 32.3023H80.1514L80.1752 44.739Z" fill="white"/>
<path d="M97.0346 54.56C95.8218 54.6076 94.6566 54.2033 93.7292 53.4424C92.8018 52.6339 92.3025 51.4449 92.3976 50.2083C92.3976 49.1383 92.9445 48.1633 94.0384 47.2597C95.1322 46.356 96.8444 45.6902 99.1748 45.2384C99.5315 45.1671 99.9357 45.0957 100.388 45.0244C100.839 44.953 101.315 44.8579 101.814 44.7628V42.0995C101.814 40.5538 101.624 39.4837 101.244 38.8655C100.887 38.2472 100.197 37.8905 99.4839 37.9381C99.0083 37.9143 98.5327 38.1045 98.1998 38.4612C97.8193 38.9844 97.6053 39.6264 97.5815 40.2685L97.5102 40.6489C97.534 41.4337 97.2724 42.1946 96.7968 42.7891C96.3926 43.2409 95.7981 43.4787 95.2036 43.4787C94.6566 43.5025 94.1335 43.3123 93.753 42.9318C93.3488 42.5513 93.1585 42.0282 93.1823 41.4812C93.1585 40.6014 93.5152 39.7453 94.1573 39.127C94.8707 38.4374 95.7743 37.9618 96.7255 37.7003C97.8431 37.3673 99.0083 37.2247 100.197 37.2247C102.219 37.2247 103.764 37.724 104.858 38.699C105.952 39.674 106.499 41.291 106.499 43.5025V51.0168C106.499 52.0394 106.975 52.5387 107.926 52.5387H108.663L108.972 52.8003C108.592 53.2997 108.116 53.7277 107.569 54.0606C106.903 54.3936 106.166 54.5362 105.405 54.5124C104.573 54.56 103.717 54.3222 103.051 53.8228C102.48 53.3472 102.076 52.7052 101.909 51.968C101.267 52.6576 100.578 53.2759 99.8168 53.8228C98.9845 54.346 98.0096 54.6076 97.0346 54.56ZM99.1034 52.4912C99.5553 52.4912 99.9833 52.3723 100.388 52.1583C100.887 51.8729 101.363 51.54 101.791 51.1595V45.4524L101.101 45.5951C100.863 45.6427 100.602 45.6902 100.316 45.7378C99.365 45.9518 98.5089 46.4274 97.8193 47.117C97.1773 47.8304 96.8444 48.7578 96.8919 49.709C96.8444 50.4699 97.0584 51.2071 97.534 51.8016C97.9145 52.2296 98.4852 52.4912 99.1034 52.4912Z" fill="white"/>
<path d="M109.638 54.0368V53.7039L110.137 53.5612C110.518 53.4661 110.851 53.2521 111.065 52.943C111.255 52.6338 111.326 52.2534 111.326 51.8967V41.2672C111.35 40.8867 111.255 40.5062 111.065 40.1733C110.827 39.888 110.494 39.7215 110.137 39.674L109.638 39.5313V39.1984L115.488 37.2247L115.821 37.5576L116.13 40.4825V40.744C116.463 40.102 116.867 39.5075 117.366 38.9844C117.866 38.4612 118.436 38.0332 119.055 37.6765C119.625 37.3436 120.267 37.1771 120.91 37.1771C121.647 37.1295 122.36 37.3911 122.883 37.8905C123.335 38.3661 123.573 39.0319 123.573 39.6977C123.62 40.3636 123.383 41.0056 122.907 41.4812C122.479 41.8855 121.908 42.1233 121.338 42.0995C120.386 42.0995 119.554 41.6239 118.817 40.6727L118.746 40.6014C118.579 40.316 118.294 40.1258 117.961 40.0782C117.628 40.0544 117.319 40.2209 117.152 40.5062C116.915 40.7203 116.724 40.9581 116.605 41.2434C116.439 41.5526 116.296 41.8855 116.177 42.2184V51.7064C116.082 52.4912 116.605 53.2283 117.366 53.3948L118.46 53.7039V54.0368H109.638Z" fill="white"/>
<path d="M131.373 54.56C129.922 54.56 128.804 54.2033 127.996 53.4661C127.187 52.7528 126.783 51.5875 126.783 49.9943V38.3661H124.429V38.0332L125.238 37.8905C125.88 37.7478 126.498 37.5338 127.045 37.2009C127.592 36.868 128.115 36.4637 128.567 36.0119L131.349 32.9206H131.682L131.587 37.6765H135.391V38.3661H131.563V50.5888C131.515 51.2309 131.706 51.8729 132.086 52.3961C132.419 52.8003 132.918 53.0143 133.418 53.0143C133.87 53.0143 134.298 52.8954 134.678 52.6576C135.082 52.3961 135.439 52.0631 135.772 51.6827L136.105 52.0156C135.653 52.7765 135.011 53.4186 134.226 53.8466C133.37 54.346 132.371 54.5838 131.373 54.56Z" fill="white"/>
<path d="M137.175 54.0369V53.7039L137.651 53.5613C138.412 53.3948 138.911 52.6814 138.84 51.8967V41.2672C138.864 40.8867 138.792 40.5063 138.602 40.1733C138.364 39.888 138.055 39.7215 137.675 39.674L137.175 39.5313V39.1984L142.977 37.2247L143.31 37.5576L143.572 39.6026C144.38 38.8893 145.284 38.3185 146.259 37.8667C147.186 37.4387 148.185 37.2009 149.208 37.1771C150.706 37.1771 151.847 37.5814 152.656 38.3899C153.464 39.1984 153.869 40.4587 153.869 42.1233V51.9205C153.797 52.729 154.368 53.4424 155.153 53.585L155.462 53.6802V54.0131H147.448V53.6802L147.9 53.5375C148.661 53.3473 149.16 52.6339 149.089 51.8729V41.0294C149.089 39.5789 148.375 38.8655 146.925 38.8655C145.926 38.8655 144.832 39.3648 143.667 40.3636V51.9205C143.596 52.7052 144.095 53.4186 144.856 53.585L145.165 53.6802V54.0131L137.175 54.0369Z" fill="white"/>
<path d="M165.354 37.2009C166.662 37.1533 167.97 37.4625 169.135 38.1045C170.158 38.6752 170.99 39.5313 171.537 40.5538C172.108 41.6477 172.393 42.8366 172.369 44.0732C172.369 44.311 172.345 44.5726 172.345 44.8341C172.322 45.0719 172.274 45.3097 172.203 45.5237H162.073C162.096 47.973 162.524 49.7327 163.38 50.8028C164.237 51.8729 165.497 52.4198 167.161 52.4198C168.113 52.4674 169.04 52.2772 169.92 51.8729C170.681 51.4686 171.347 50.9217 171.894 50.2797L172.227 50.5888C171.561 51.8016 170.609 52.8003 169.421 53.5137C168.136 54.2509 166.686 54.6075 165.235 54.56C163.737 54.5838 162.263 54.2271 160.955 53.5137C159.718 52.8241 158.696 51.8016 158.03 50.5412C157.293 49.1145 156.936 47.5212 156.984 45.928C156.936 44.2634 157.364 42.6226 158.196 41.1959C158.957 39.9355 160.051 38.913 161.335 38.2234C162.572 37.5338 163.951 37.2009 165.354 37.2009ZM165.259 37.8667C164.641 37.8429 164.046 38.0569 163.571 38.4612C163 39.0319 162.62 39.7691 162.477 40.5776C162.168 41.9806 162.025 43.4074 162.049 44.8341H167.851C168.065 42.3611 167.994 40.5776 167.589 39.5075C167.28 38.485 166.305 37.8191 165.259 37.8667Z" fill="white"/>
<path d="M174.057 54.0368V53.7039L174.557 53.5612C174.937 53.4661 175.27 53.2521 175.484 52.943C175.674 52.6338 175.746 52.2534 175.746 51.8967V41.2672C175.769 40.8867 175.674 40.5062 175.484 40.1733C175.246 39.888 174.913 39.7215 174.557 39.674L174.057 39.5313V39.1984L179.907 37.2247L180.24 37.5576L180.549 40.4825V40.744C180.882 40.102 181.286 39.5075 181.786 38.9844C182.285 38.4612 182.856 38.0332 183.474 37.6765C184.045 37.3436 184.687 37.1771 185.329 37.1771C186.066 37.1295 186.779 37.3911 187.303 37.8905C187.754 38.3661 187.992 39.0319 187.992 39.6977C188.04 40.3636 187.802 41.0056 187.326 41.4812C186.898 41.8855 186.328 42.1233 185.757 42.0995C184.806 42.0995 183.973 41.6239 183.236 40.6727L183.165 40.6014C182.998 40.316 182.713 40.1258 182.38 40.0782C182.047 40.0544 181.738 40.2209 181.572 40.5062C181.334 40.7203 181.144 40.9581 181.001 41.2434C180.834 41.5526 180.692 41.8855 180.573 42.2184V51.7064C180.478 52.4912 181.001 53.2283 181.762 53.3948L182.856 53.7039V54.0368H174.057Z" fill="white"/>
<path d="M194.603 54.56C193.58 54.5838 192.581 54.4411 191.606 54.1795C190.75 53.9417 189.942 53.6088 189.157 53.2046L189.181 49.162H189.514L190.679 51.2071C191.083 51.9918 191.63 52.6814 192.32 53.2283C192.986 53.7039 193.794 53.9179 194.603 53.8942C195.53 53.9417 196.458 53.6801 197.242 53.157C197.884 52.729 198.265 51.9918 198.241 51.2071C198.265 50.5175 198.003 49.8516 197.528 49.376C197.052 48.9004 196.172 48.4724 194.888 48.0919L193.461 47.6401C192.225 47.3072 191.083 46.6652 190.203 45.7378C189.419 44.8817 188.991 43.7403 189.014 42.5751C188.991 41.1007 189.657 39.6977 190.774 38.7703C191.963 37.724 193.628 37.2009 195.839 37.2009C196.672 37.2009 197.528 37.296 198.336 37.4862C199.121 37.6765 199.882 37.9618 200.595 38.3423L200.381 42.0044H200.048L198.859 39.888C198.55 39.2697 198.122 38.7466 197.575 38.3185C197.004 37.9618 196.339 37.8192 195.697 37.8667C194.936 37.8667 194.175 38.0807 193.533 38.5088C192.891 38.8892 192.486 39.6026 192.51 40.3398C192.486 41.0532 192.795 41.7428 193.366 42.1708C194.151 42.7178 195.007 43.1458 195.934 43.4311L197.456 43.883C199.097 44.3823 200.262 45.0719 200.952 45.928C201.665 46.8316 202.022 47.9255 201.998 49.0669C202.046 50.6364 201.309 52.1107 200.048 53.0381C198.788 54.0606 196.957 54.56 194.603 54.56Z" fill="white"/>
</svg>
