<svg width="188" height="64" viewBox="0 0 188 64" fill="none" xmlns="http://www.w3.org/2000/svg">
<path d="M34.3197 22.6474C39.9344 20.5997 42.8408 14.3906 40.7931 8.77592C39.2298 4.5044 35.1785 1.66406 30.6207 1.66406H28.3088C22.518 1.66406 7.19328 1.66406 7.19328 1.66406C7.19328 1.66406 11.0685 3.13928 11.0685 7.52089C11.0685 7.60896 11.0685 7.71905 11.0685 7.80713V22.3391L11.0905 23.1538L11.0685 24.673L11.1125 24.651V24.673L11.1566 24.629C14.8556 23.0437 20.9767 22.8015 20.9767 22.8015V22.4272H20.9987V2.74295H25.7767C25.8647 2.74295 25.9308 2.74295 26.0189 2.74295C28.9913 2.74295 32.206 6.77227 32.206 11.7484C32.162 13.73 31.6335 15.6456 30.6647 17.363C29.5418 19.6969 27.4501 21.5905 24.4776 22.9776C24.962 23.0657 25.2702 23.1097 25.5785 23.1758C34.3858 24.9593 40.617 29.7152 42.9289 38.6766C45.0206 46.7793 41.5858 55.3663 34.4739 60.5846C29.0794 64.5479 23.1565 64.7241 18.6868 61.5314C9.65932 55.2562 11.6189 42.794 11.6189 42.794C11.707 41.9793 11.8611 41.1646 12.0153 40.372C12.4336 38.2142 13.2043 36.1445 14.3052 34.2509C14.6354 33.7005 15.0098 33.15 15.4281 32.6436C16.7272 30.9482 18.3345 29.517 20.162 28.4381C21.2849 27.7996 22.4959 27.3152 23.773 27.007C23.729 27.007 23.6849 27.007 23.6409 27.007C24.0813 26.8969 24.5436 26.8088 25.006 26.7648C21.5271 26.5226 18.0483 26.9409 14.7235 27.9978L14.6354 28.0198C10.4079 29.429 8.11805 31.4326 8.11805 31.4326C-1.17365 38.2582 -1.74612 50.3022 6.99512 57.7883C8.86667 59.4177 10.9804 60.6947 13.2703 61.5975C22.496 65.0543 31.7436 64.8562 40.683 60.6067C52.6609 54.904 55.6774 41.2527 47.3986 30.8821C44.0298 26.7648 39.6482 24.2106 34.3197 22.6474Z" fill="#EB9500"/>
<path d="M22.2352 30.6842V48.2327C22.2352 48.3208 22.2352 48.4089 22.2352 48.5189C22.2352 52.9006 18.1838 54.1996 18.1838 54.1996H35.5342C33.1782 53.2969 31.6369 51.029 31.659 48.5189C31.659 48.4309 31.659 48.3208 31.659 48.2327V30.6842H22.2352Z" fill="#EB9500"/>
<path d="M58.9827 11.9025C58.9606 8.57776 57.1551 5.34109 53.6102 3.31542C51.4084 2.06039 48.6341 1.75214 46.08 1.66406H38.858C41.1039 1.97232 43.2616 2.69891 45.2433 3.79982C47.8855 5.86953 49.4047 9.06216 49.3607 12.4089C49.3607 14.0823 48.9644 15.7337 48.2157 17.2529C47.0708 19.3887 45.0671 21.1501 42.2928 22.4492H42.5791C42.469 22.4932 42.3589 22.5373 42.2488 22.5813H49.3827C49.3827 22.5813 58.8285 22.1189 58.9827 12.3429C58.9827 12.3208 58.9827 12.2988 58.9827 12.2768C58.9827 12.2108 58.9827 12.1447 58.9827 12.0786C58.9827 12.0126 58.9827 11.9686 58.9827 11.9025Z" fill="#EB9500"/>
<path d="M68.6328 22.2148L69.2053 21.9946C69.5576 21.8845 69.8658 21.6643 70.064 21.356C70.2401 21.0478 70.3282 20.6955 70.3062 20.3432V3.93969C70.3282 3.5874 70.2401 3.21309 70.064 2.90483C69.8438 2.6186 69.5576 2.39842 69.2053 2.31034L68.6328 2.09016V1.78191H77.6603C80.2144 1.78191 82.0639 2.24429 83.1869 3.19107C84.2878 4.02776 84.9043 5.34885 84.8823 6.73599C84.8602 7.8369 84.4199 8.87175 83.6492 9.64239C82.8125 10.5231 81.4034 11.1176 79.3777 11.4919C81.6896 11.7341 83.363 12.3506 84.4419 13.2974C85.4768 14.1561 86.0492 15.4332 86.0492 16.7763C86.0492 17.4808 85.8951 18.1634 85.6089 18.8019C85.2786 19.5285 84.7502 20.1891 84.1116 20.6735C83.2529 21.312 82.2621 21.7744 81.2272 22.0386C79.708 22.4129 78.1667 22.5891 76.6034 22.567H68.6328V22.2148ZM76.2952 11.4259C77.7043 11.4259 78.7172 11.0956 79.3337 10.4571C79.9502 9.79651 80.2584 8.67359 80.2584 7.06626C80.2584 5.39288 79.9722 4.2039 79.3997 3.47731C78.8273 2.77272 77.9025 2.39842 76.6254 2.39842H74.93V11.4259H76.2952ZM76.5153 21.9065C78.0786 21.9065 79.2676 21.4882 80.0162 20.6515C80.7649 19.8148 81.1612 18.4937 81.1612 16.7102C81.1612 15.0368 80.7869 13.8479 80.0603 13.1213C79.3337 12.3947 78.1227 12.0424 76.4493 12.0424H74.93V21.9065H76.5153Z" fill="#121212"/>
<path d="M87.3683 22.5228V22.2146L87.8307 22.0825C88.183 21.9944 88.4913 21.7962 88.6894 21.51C88.8656 21.2238 88.9316 20.8715 88.9316 20.5412V10.6991C88.9537 10.3468 88.8656 9.99452 88.6894 9.68626C88.4693 9.42205 88.161 9.26792 87.8307 9.22388L87.3683 9.09177V8.78352L92.7848 6.95601L93.0931 7.26427L93.3793 9.9725V10.2147C93.6876 9.62021 94.0619 9.06975 94.5243 8.58536C94.9867 8.10096 95.5151 7.70463 96.0876 7.37436C96.616 7.0661 97.1885 6.91198 97.805 6.91198C98.4875 6.86794 99.1481 7.11014 99.6325 7.57252C100.051 8.01288 100.271 8.62939 100.271 9.2459C100.315 9.86241 100.095 10.4569 99.6545 10.8973C99.2582 11.2716 98.7297 11.4918 98.2013 11.4697C97.3206 11.4697 96.5499 11.0294 95.8674 10.1486L95.8013 10.0826C95.6472 9.81837 95.383 9.64223 95.0747 9.59819C94.7665 9.57617 94.4802 9.7303 94.3261 9.99452C94.1059 10.1927 93.9298 10.4129 93.7977 10.6771C93.6435 10.9633 93.5114 11.2716 93.4013 11.5798V20.3651C93.3133 21.0917 93.7977 21.7742 94.5022 21.9284L95.5151 22.2146V22.5228H87.3683Z" fill="#121212"/>
<path d="M101.308 22.523V22.2147L101.748 22.0826C102.1 22.0166 102.409 21.7964 102.607 21.5102C102.783 21.2019 102.849 20.8496 102.849 20.4973V10.6772C102.871 10.3249 102.783 9.99467 102.607 9.68641C102.387 9.4222 102.078 9.26807 101.748 9.22403L101.308 9.13596V8.82771L107.054 6.97818L107.363 7.28644L107.275 11.7561V20.5634C107.253 20.9157 107.341 21.268 107.517 21.5762C107.715 21.8625 108.023 22.0606 108.354 22.1487L108.662 22.2368V22.545L101.308 22.523ZM105.029 5.28278C104.368 5.3048 103.708 5.0626 103.223 4.60022C102.739 4.15986 102.475 3.54335 102.475 2.88281C102.453 2.22226 102.717 1.58373 103.223 1.14337C103.73 0.703008 104.368 0.460808 105.029 0.482826C105.689 0.460808 106.328 0.703008 106.812 1.14337C107.297 1.58373 107.561 2.22226 107.539 2.88281C107.561 3.52133 107.297 4.15986 106.812 4.60022C106.328 5.0626 105.689 5.3048 105.029 5.28278Z" fill="#121212"/>
<path d="M116.746 23.0078C115.579 23.0298 114.434 22.7436 113.421 22.1711C112.386 21.5766 111.572 20.6739 111.087 19.595C110.471 18.1858 110.163 16.6446 110.229 15.1033C110.163 13.518 110.515 11.9547 111.197 10.5235C111.77 9.40061 112.673 8.45383 113.774 7.8153C114.831 7.22081 116.042 6.91256 117.275 6.91256C117.979 6.91256 118.684 6.97861 119.388 7.13274C120.005 7.26485 120.621 7.48503 121.172 7.79328V3.71992C121.194 3.38965 121.128 3.03736 120.974 2.75112C120.753 2.48691 120.445 2.33278 120.115 2.31076L119.52 2.17865V1.8704L125.245 0.483254L125.597 0.76949L125.465 5.17312V20.5638C125.443 20.9161 125.531 21.2684 125.685 21.5766C125.862 21.8629 126.17 22.061 126.5 22.1271L126.786 22.2152V22.5234L121.414 22.8757L121.128 21.7528C120.533 22.1491 119.873 22.4574 119.19 22.6555C118.353 22.8977 117.561 23.0078 116.746 23.0078ZM118.552 21.8409C119.432 21.8409 120.269 21.5766 120.974 21.0482V8.56392C120.269 8.07952 119.432 7.8153 118.574 7.8153C117.561 7.8153 116.702 8.38777 115.997 9.55473C115.293 10.7217 114.919 12.5492 114.919 15.0373C114.919 17.5253 115.249 19.2868 115.931 20.2996C116.482 21.2464 117.473 21.8188 118.552 21.8409Z" fill="#121212"/>
<path d="M134.685 17.0841C133.43 17.1282 132.153 16.864 131.008 16.3575V17.4364C130.964 18.0309 131.404 18.5373 131.976 18.6034L137.899 19.7043C138.802 19.8804 139.705 20.1226 140.564 20.4529C141.29 20.7171 141.951 21.1575 142.479 21.752C142.986 22.3905 143.25 23.2052 143.206 24.0419C143.206 25.0767 142.853 26.0896 142.193 26.8822C141.4 27.829 140.387 28.5556 139.22 28.996C137.657 29.5684 136.006 29.8547 134.332 29.7886C132.989 29.8326 131.624 29.6565 130.347 29.2602C129.532 29.018 128.806 28.5556 128.255 27.9171C127.859 27.4327 127.639 26.8162 127.639 26.1776C127.661 25.363 127.925 24.5703 128.41 23.8877C128.894 23.1391 129.554 22.5226 130.303 22.0382C129.753 21.8621 129.268 21.5098 128.894 21.0694C128.608 20.6951 128.454 20.2547 128.454 19.7704C128.454 19.352 128.564 18.9557 128.784 18.5814C129.026 18.185 129.29 17.8107 129.576 17.4584L130.611 16.1374C129.07 15.2566 128.321 13.8695 128.321 11.9759C128.277 10.5668 128.872 9.22365 129.951 8.29889C131.03 7.35211 132.615 6.88973 134.707 6.88973C135.654 6.86771 136.6 6.99982 137.525 7.26404C138.252 7.48422 138.934 7.83651 139.529 8.34293C140.189 8.23284 140.828 8.07871 141.422 7.81449C142.017 7.57229 142.567 7.24202 143.052 6.82368L143.492 7.13193V8.73925H139.947C140.718 9.642 141.136 10.7869 141.07 11.9759C141.114 13.3631 140.52 14.7062 139.441 15.6089C138.384 16.5997 136.798 17.0841 134.685 17.0841ZM129.973 25.1648C129.973 26.3978 130.347 27.3446 131.118 27.9611C131.888 28.5996 133.099 28.9079 134.751 28.9079C136.49 28.9079 137.811 28.6216 138.692 28.0492C139.529 27.5428 140.035 26.64 140.013 25.6492C140.035 25.0987 139.793 24.5703 139.375 24.24C138.714 23.7997 137.965 23.5134 137.195 23.4254L131.492 22.3465L130.986 22.2144C130.677 22.6547 130.435 23.1391 130.259 23.6455C130.083 24.152 129.973 24.6584 129.973 25.1648ZM134.663 16.4456C135.433 16.4896 136.138 16.0933 136.512 15.4108C136.909 14.7282 137.085 13.5612 137.085 11.9539C137.085 10.3466 136.887 9.20164 136.512 8.54109C135.918 7.57229 134.663 7.26404 133.694 7.83651C133.408 8.01266 133.143 8.25486 132.989 8.56311C132.593 9.24567 132.395 10.3906 132.395 11.9979C132.395 13.6053 132.571 14.7502 132.945 15.4328C133.254 16.0933 133.936 16.4896 134.663 16.4456Z" fill="#121212"/>
<path d="M151.973 6.91128C153.184 6.86724 154.395 7.15347 155.474 7.74796C156.421 8.2764 157.191 9.06905 157.698 10.0158C158.226 11.0287 158.49 12.1296 158.468 13.2745C158.468 13.4947 158.446 13.7369 158.446 13.9791C158.424 14.1993 158.38 14.4195 158.314 14.6176H148.935C148.957 16.8855 149.353 18.5148 150.146 19.5057C150.938 20.4965 152.105 21.0029 153.646 21.0029C154.527 21.0469 155.386 20.8708 156.201 20.4965C156.905 20.1222 157.522 19.6157 158.028 19.0213L158.336 19.3075C157.72 20.4304 156.839 21.3552 155.738 22.0157C154.549 22.6983 153.206 23.0286 151.863 22.9845C150.476 23.0065 149.111 22.6763 147.9 22.0157C146.755 21.3772 145.808 20.4304 145.191 19.2635C144.509 17.9424 144.179 16.4672 144.223 14.9919C144.179 13.4507 144.575 11.9314 145.346 10.6103C146.05 9.44336 147.063 8.49658 148.252 7.85805C149.375 7.24155 150.674 6.91128 151.973 6.91128ZM151.863 7.5498C151.29 7.52778 150.74 7.72595 150.3 8.10026C149.771 8.62869 149.419 9.31125 149.287 10.0599C149.001 11.3589 148.868 12.68 148.89 14.0011H154.263C154.461 11.7112 154.395 10.0599 154.021 9.06905C153.757 8.12227 152.854 7.48375 151.863 7.5498Z" fill="#121212"/>
<path d="M68.6328 50.5161V50.2079L69.2713 49.9877C69.6236 49.9216 69.9099 49.7235 70.108 49.4152C70.2622 49.107 70.3282 48.7547 70.3062 48.4024V31.9108C70.3282 31.5585 70.2401 31.2062 70.086 30.8979C69.8878 30.6117 69.5796 30.3915 69.2273 30.3035L68.6328 30.0613V29.753H76.2731C79.3997 29.753 81.6676 30.3255 83.0548 31.4704C84.4199 32.5713 85.1905 34.2447 85.1465 35.9841C85.1465 37.1291 84.8603 38.274 84.2878 39.2648C83.6272 40.3437 82.6144 41.1804 81.4474 41.6428C80.1263 42.2373 78.3429 42.5235 76.097 42.5235H75.0181V48.3143C74.9741 49.0849 75.5025 49.7675 76.2511 49.9216L77.1979 50.2079V50.5161H68.6328ZM75.0181 41.907H76.2071C77.0658 41.9511 77.9465 41.7749 78.7172 41.4006C79.3997 41.0263 79.9282 40.3878 80.1704 39.6392C80.5227 38.5162 80.6768 37.3272 80.6327 36.1383C80.6768 34.9493 80.5006 33.7383 80.1043 32.6154C79.8401 31.8667 79.2896 31.2282 78.585 30.8759C77.7924 30.5236 76.9337 30.3695 76.075 30.3915H74.9961L75.0181 41.907Z" fill="#121212"/>
<path d="M90.6309 50.9999C89.508 51.0439 88.4291 50.6696 87.5703 49.9651C86.7116 49.2164 86.2493 48.1155 86.3373 46.9706C86.3373 45.9798 86.8437 45.077 87.8566 44.2403C88.8694 43.4036 90.4547 42.7871 92.6125 42.3688C92.9428 42.3027 93.3171 42.2367 93.7355 42.1706C94.1538 42.1046 94.5942 42.0165 95.0565 41.9284V39.4624C95.0565 38.0312 94.8804 37.0404 94.5281 36.4679C94.1978 35.8955 93.5593 35.5652 92.8988 35.6092C92.4584 35.5872 92.018 35.7633 91.7098 36.0936C91.3575 36.578 91.1593 37.1725 91.1373 37.767L91.0712 38.1193C91.0933 38.8459 90.8511 39.5505 90.4107 40.1009C90.0364 40.5193 89.4859 40.7394 88.9355 40.7394C88.4291 40.7615 87.9447 40.5853 87.5924 40.233C87.2181 39.8807 87.0419 39.3963 87.0639 38.8899C87.0419 38.0753 87.3722 37.2826 87.9667 36.7101C88.6272 36.0716 89.4639 35.6312 90.3446 35.389C91.3795 35.0808 92.4584 34.9487 93.5593 34.9487C95.4309 34.9487 96.862 35.4111 97.8749 36.3138C98.8877 37.2165 99.3941 38.7138 99.3941 40.7615V47.7192C99.3941 48.666 99.8345 49.1284 100.715 49.1284H101.398L101.684 49.3706C101.332 49.8329 100.891 50.2293 100.385 50.5375C99.7684 50.8458 99.0859 50.9779 98.3813 50.9559C97.6107 50.9999 96.818 50.7797 96.2015 50.3173C95.6731 49.877 95.2987 49.2825 95.1446 48.5999C94.5501 49.2385 93.9116 49.8109 93.207 50.3173C92.4364 50.8017 91.5336 51.0439 90.6309 50.9999ZM92.5465 49.0843C92.9648 49.0843 93.3611 48.9742 93.7355 48.7761C94.1978 48.5119 94.6382 48.2036 95.0345 47.8513V42.567L94.396 42.6991C94.1758 42.7431 93.9336 42.7871 93.6694 42.8312C92.7887 43.0293 91.996 43.4697 91.3575 44.1082C90.763 44.7688 90.4547 45.6275 90.4988 46.5082C90.4547 47.2128 90.6529 47.8954 91.0933 48.4458C91.4456 48.8421 91.974 49.0843 92.5465 49.0843Z" fill="#121212"/>
<path d="M102.299 50.5158V50.2076L102.761 50.0755C103.114 49.9874 103.422 49.7892 103.62 49.503C103.796 49.2168 103.862 48.8645 103.862 48.5342V38.6921C103.884 38.3398 103.796 37.9875 103.62 37.6792C103.4 37.415 103.092 37.2609 102.761 37.2169L102.299 37.0848V36.7765L107.715 34.949L108.024 35.2572L108.31 37.9655V38.2077C108.618 37.6132 108.992 37.0627 109.455 36.5783C109.917 36.0939 110.446 35.6976 111.018 35.3673C111.547 35.0591 112.141 34.905 112.736 34.905C113.418 34.8609 114.079 35.1031 114.563 35.5655C114.981 36.0059 115.202 36.6224 115.202 37.2389C115.246 37.8554 115.025 38.4499 114.585 38.8902C114.189 39.2646 113.66 39.4847 113.132 39.4627C112.251 39.4627 111.481 39.0224 110.798 38.1416L110.732 38.0756C110.578 37.8114 110.314 37.6352 110.005 37.5912C109.697 37.5692 109.411 37.7233 109.257 37.9875C109.036 38.1857 108.86 38.4058 108.75 38.6701C108.596 38.9563 108.464 39.2646 108.354 39.5728V48.358C108.266 49.0846 108.75 49.7672 109.455 49.9213L110.468 50.2076V50.5158H102.299Z" fill="#121212"/>
<path d="M122.422 51.0012C121.079 51.0012 120.044 50.6709 119.295 49.9883C118.547 49.3278 118.172 48.2489 118.172 46.7737V36.0068H115.992V35.6986L116.741 35.5665C117.336 35.4343 117.908 35.2362 118.414 34.9279C118.921 34.6197 119.405 34.2454 119.824 33.827L122.4 30.9647H122.708L122.62 35.3683H126.143V36.0068H122.598V47.3242C122.554 47.9186 122.73 48.5131 123.082 48.9975C123.391 49.3718 123.853 49.57 124.315 49.57C124.734 49.57 125.13 49.4599 125.482 49.2397C125.857 48.9975 126.187 48.6893 126.495 48.337L126.803 48.6452C126.385 49.3498 125.791 49.9443 125.064 50.3406C124.271 50.803 123.347 51.0232 122.422 51.0012Z" fill="#121212"/>
<path d="M127.798 50.5161V50.2079L128.238 50.0758C128.943 49.9217 129.405 49.2611 129.339 48.5345V38.6924C129.361 38.3401 129.295 37.9878 129.119 37.6796C128.899 37.4153 128.613 37.2612 128.26 37.2172L127.798 37.0851V36.7768L133.17 34.9493L133.479 35.2576L133.721 37.1511C134.47 36.4906 135.306 35.9621 136.209 35.5438C137.068 35.1475 137.992 34.9273 138.939 34.9053C140.326 34.9053 141.383 35.2796 142.132 36.0282C142.881 36.7768 143.255 37.9438 143.255 39.485V48.5565C143.189 49.3051 143.717 49.9657 144.444 50.0978L144.73 50.1859V50.4941H137.31V50.1859L137.728 50.0538C138.433 49.8776 138.895 49.2171 138.829 48.5125V38.4722C138.829 37.1291 138.169 36.4686 136.826 36.4686C135.901 36.4686 134.888 36.9309 133.809 37.8557V48.5565C133.743 49.2831 134.205 49.9437 134.91 50.0978L135.196 50.1859V50.4941L127.798 50.5161Z" fill="#121212"/>
<path d="M153.89 34.9278C155.101 34.8837 156.312 35.17 157.391 35.7645C158.338 36.2929 159.108 37.0855 159.615 38.0323C160.143 39.0452 160.407 40.1461 160.385 41.291C160.385 41.5112 160.363 41.7534 160.363 41.9956C160.341 42.2158 160.297 42.436 160.231 42.6341H150.852C150.874 44.902 151.27 46.5313 152.063 47.5222C152.855 48.513 154.022 49.0194 155.563 49.0194C156.444 49.0634 157.303 48.8873 158.118 48.513C158.822 48.1387 159.439 47.6322 159.945 47.0378L160.253 47.324C159.637 48.4469 158.756 49.3717 157.655 50.0322C156.466 50.7148 155.123 51.0451 153.78 51.001C152.393 51.023 151.028 50.6928 149.817 50.0322C148.672 49.3937 147.725 48.4469 147.108 47.28C146.426 45.9589 146.096 44.4836 146.14 43.0084C146.096 41.4672 146.492 39.9479 147.263 38.6268C147.967 37.4599 148.98 36.5131 150.169 35.8745C151.314 35.236 152.591 34.9278 153.89 34.9278ZM153.802 35.5443C153.229 35.5223 152.679 35.7204 152.239 36.0947C151.71 36.6232 151.358 37.3057 151.226 38.0543C150.94 39.3534 150.807 40.6745 150.829 41.9956H156.202C156.4 39.7057 156.334 38.0543 155.96 37.0635C155.673 36.1167 154.771 35.5002 153.802 35.5443Z" fill="#121212"/>
<path d="M161.949 50.5158V50.2076L162.411 50.0755C162.763 49.9874 163.072 49.7892 163.27 49.503C163.446 49.2168 163.512 48.8645 163.512 48.5342V38.6921C163.534 38.3398 163.446 37.9875 163.27 37.6792C163.05 37.415 162.741 37.2609 162.411 37.2169L161.949 37.0848V36.7765L167.365 34.949L167.674 35.2572L167.96 37.9655V38.2077C168.268 37.6132 168.642 37.0627 169.105 36.5783C169.567 36.0939 170.096 35.6976 170.668 35.3673C171.196 35.0591 171.791 34.905 172.385 34.905C173.068 34.8609 173.729 35.1031 174.213 35.5655C174.631 36.0059 174.851 36.6224 174.851 37.2389C174.895 37.8554 174.675 38.4499 174.235 38.8902C173.839 39.2646 173.31 39.4847 172.782 39.4627C171.901 39.4627 171.13 39.0224 170.448 38.1416L170.382 38.0756C170.228 37.8114 169.963 37.6352 169.655 37.5912C169.347 37.5692 169.061 37.7233 168.907 37.9875C168.686 38.1857 168.51 38.4058 168.378 38.6701C168.224 38.9563 168.092 39.2646 167.982 39.5728V48.358C167.894 49.0846 168.378 49.7672 169.083 49.9213L170.096 50.2076V50.5158H161.949Z" fill="#121212"/>
<path d="M180.969 51.0002C180.023 51.0222 179.098 50.8901 178.195 50.6479C177.402 50.4278 176.654 50.1195 175.927 49.7452L175.949 46.0021H176.258L177.336 47.8957C177.711 48.6223 178.217 49.2608 178.856 49.7672C179.472 50.2076 180.221 50.4057 180.969 50.3837C181.828 50.4278 182.687 50.1856 183.413 49.7012C184.008 49.3048 184.36 48.6223 184.338 47.8957C184.36 47.2571 184.118 46.6406 183.678 46.2003C183.237 45.7599 182.423 45.3636 181.234 45.0113L179.913 44.5929C178.768 44.2847 177.711 43.6902 176.896 42.8315C176.169 42.0388 175.773 40.982 175.795 39.9031C175.773 38.538 176.39 37.2389 177.424 36.3802C178.525 35.4114 180.067 34.927 182.114 34.927C182.885 34.927 183.678 35.015 184.426 35.1912C185.153 35.3673 185.857 35.6316 186.518 35.9838L186.32 39.3746H186.012L184.911 37.415C184.624 36.8426 184.228 36.3582 183.722 35.9618C183.193 35.6316 182.577 35.4994 181.982 35.5435C181.278 35.5435 180.573 35.7416 179.979 36.138C179.384 36.4903 179.01 37.1508 179.032 37.8334C179.01 38.4939 179.296 39.1324 179.824 39.5288C180.551 40.0352 181.344 40.4315 182.202 40.6957L183.612 41.1141C185.131 41.5765 186.21 42.215 186.848 43.0076C187.509 43.8443 187.839 44.8572 187.817 45.914C187.861 47.3672 187.179 48.7324 186.012 49.5911C184.845 50.5378 183.149 51.0002 180.969 51.0002Z" fill="#121212"/>
</svg>
